:SAMPLES-PER-SECOND 30
:FULLY-SPECIFIED
:DEGREES
122
root  17.5969 34.069 10.1631 -169.154 2.70932 173.434
RightUpLeg  -35.5339 -7.52656 -32.1168
RightLeg  40.7297 -4.23453 -4.17192
RightFoot  -4.04124 -2.33692 35.128
RightToes  -5.8209e-011 0 -3.6325e-017
Spine  26.8516 0.764729 1.47433
Spine1  9.37658 1.06337 1.24294
HEad  -39.1745 8.76451 -13.9312
LeftShoulder1  1.2182 -1.36302 -18.442
LeftArm  10.8267 24.887 -43.493
LeftForeArm  -8.90107 -25.9238 -7.58643
LeftHand  -2.31513 -3.86917 28.7544
RightShoulder  0.9834 0.949704 15.3743
RightArm  -21.4805 -35.77 49.0345
RightForeArm  3.20759 25.6155 5.29982
RightHand  -1.40117 4.74504 -16.2341
LeftUpLeg  -31.9455 0.949673 14.91
LeftLeg  45.058 4.94972 5.71614
LeftFoot  -17.6847 -1.25854 -24.2721
LeftToes  6.82088e-011 -2.45093e-011 5.71991e-013
123
root  18.3323 33.7306 10.182 -169.756 3.45169 173.094
RightUpLeg  -37.4424 -5.90433 -32.0439
RightLeg  44.7987 -2.98279 -3.46748
RightFoot  -7.01432 -1.43297 35.4965
RightToes  -5.8209e-011 0 -3.6325e-017
Spine  26.6366 0.0817502 1.19177
Spine1  10.8009 0.5575 0.0332028
HEad  -40.4369 10.0022 -13.8804
LeftShoulder1  1.36541 -1.78782 -19.2906
LeftArm  3.06123 28.9376 -40.0006
LeftForeArm  6.63355 -11.9382 -13.1027
LeftHand  -2.05146 -3.02269 28.0523
RightShoulder  1.00359 0.863443 16.3599
RightArm  -18.1198 -38.6945 48.354
RightForeArm  4.95501 22.4629 4.93553
RightHand  -1.38009 4.69691 -16.0707
LeftUpLeg  -30.9739 0.619014 16.0365
LeftLeg  45.152 5.16624 5.96282
LeftFoot  -18.0299 -1.42873 -25.8645
LeftToes  6.82088e-011 -2.45093e-011 5.71991e-013
124
root  19.1178 33.3452 10.2487 -170.497 4.40704 172.908
RightUpLeg  -39.706 -5.30889 -31.2326
RightLeg  49.2358 -1.87181 -2.67076
RightFoot  -9.62825 -0.600472 34.4952
RightToes  -5.8209e-011 0 -3.6325e-017
Spine  26.4894 -0.547523 0.942971
Spine1  12.7481 0.0867275 -0.961374
HEad  -42.0203 11.1199 -14.0909
LeftShoulder1  1.4744 -2.25311 -19.0866
LeftArm  3.24384 36.0237 -37.6945
LeftForeArm  17.2434 -6.062 -16.5401
LeftHand  -1.87128 -2.75284 26.5268
RightShoulder  1.04784 0.893777 17.2862
RightArm  -16.9464 -42.3768 47.0978
RightForeArm  7.04363 19.7344 6.01329
RightHand  -1.45187 4.87761 -16.5876
LeftUpLeg  -29.8926 -0.327752 17.4525
LeftLeg  45.497 5.92773 6.84819
LeftFoot  -18.1349 -1.60064 -28.2578
LeftToes  6.82088e-011 -2.45093e-011 5.71991e-013
125
root  19.9284 32.9514 10.3751 -171.09 5.54501 173.178
RightUpLeg  -42.0643 -5.30174 -29.3754
RightLeg  53.2411 -1.17172 -2.07732
RightFoot  -12.3055 0.190096 32.1293
RightToes  -5.8209e-011 0 -3.6325e-017
Spine  26.4312 -0.941292 1.38699
Spine1  14.6587 0.0229532 -1.70085
HEad  -43.7112 11.8974 -14.5248
LeftShoulder1  1.44619 -2.36492 -18.0355
LeftArm  37.7694 45.1513 -38.3085
LeftForeArm  -6.2727 -16.7323 -12.2963
LeftHand  -1.84241 -2.74184 26.1598
RightShoulder  1.11273 1.02652 18.086
RightArm  -13.1059 -47.5911 45.4929
RightForeArm  4.44409 19.651 6.41101
RightHand  -1.60559 5.02092 -18.0542
LeftUpLeg  -29.1189 -1.49051 19.4513
LeftLeg  46.2722 7.13396 8.34485
LeftFoot  -17.5248 -1.57624 -30.4325
LeftToes  6.82088e-011 -2.45093e-011 5.71991e-013
126
root  20.7644 32.5944 10.5519 -171.136 6.87025 174.113
RightUpLeg  -44.5621 -5.16124 -26.5455
RightLeg  56.3811 -0.795129 -1.72332
RightFoot  -14.8854 0.833319 29.5661
RightToes  -5.8209e-011 0 -3.6325e-017
Spine  26.2627 -1.20656 3.08709
Spine1  16.0621 0.596874 -2.81371
HEad  -45.1007 12.6796 -14.9872
LeftShoulder1  1.4282 -2.52291 -17.0254
LeftArm  56.473 54.3116 -36.6688
LeftForeArm  -18.2965 -26.5563 -5.80234
LeftHand  -1.8018 -2.72838 25.6451
RightShoulder  1.17236 1.12362 18.9246
RightArm  -6.70335 -53.5704 43.7945
RightForeArm  -0.939634 22.6709 5.416
RightHand  -1.67192 5.08566 -18.6641
LeftUpLeg  -28.7439 -2.32681 22.2066
LeftLeg  46.9383 8.33016 9.85418
LeftFoot  -16.3936 -1.3542 -32.0874
LeftToes  6.82088e-011 -2.45093e-011 5.71991e-013
127
root  21.6538 32.3294 10.7281 -170.633 8.07419 175.438
RightUpLeg  -47.0343 -4.65715 -23.2889
RightLeg  58.8313 -0.602456 -1.55476
RightFoot  -16.779 1.22888 27.749
RightToes  -5.8209e-011 0 -3.6325e-017
Spine  25.9483 -1.50231 5.21407
Spine1  16.8024 1.28511 -4.00664
HEad  -46.2812 13.7089 -15.6473
LeftShoulder1  1.56364 -3.23061 -16.5021
LeftArm  46.7487 61.037 -34.6275
LeftForeArm  -9.81639 -32.8313 -7.80568
LeftHand  -1.70219 -2.99139 23.542
RightShoulder  1.22927 1.25055 19.4861
RightArm  -7.48875 -57.5805 42.8683
RightForeArm  -1.87821 25.8024 5.57109
RightHand  -1.61845 5.14936 -17.9816
LeftUpLeg  -28.1551 -3.34349 25.3512
LeftLeg  46.4034 9.69313 11.1417
LeftFoot  -15.2024 -1.10097 -34.3964
LeftToes  6.82088e-011 -2.45093e-011 5.71991e-013
128
root  22.6201 32.2789 10.8203 -170.082 8.45297 176.572
RightUpLeg  -48.4772 -4.21906 -20.176
RightLeg  60.4371 -0.639609 -1.73439
RightFoot  -17.8803 1.41181 26.41
RightToes  -5.8209e-011 0 -3.6325e-017
Spine  25.7273 -1.68388 6.35818
Spine1  16.6949 1.33762 -3.84692
HEad  -47.2122 14.5359 -16.6531
LeftShoulder1  1.78642 -4.05413 -16.9588
LeftArm  31.6918 61.8071 -39.8542
LeftForeArm  -9.89253 -36.9532 -8.9608
LeftHand  -1.60848 -2.93284 22.4872
RightShoulder  1.30775 1.57484 19.3699
RightArm  -14.5949 -56.638 44.2782
RightForeArm  -5.40655 25.9912 5.80152
RightHand  -1.6243 5.15696 -18.036
LeftUpLeg  -26.7019 -6.11213 28.2224
LeftLeg  43.9552 12.6159 13.0673
LeftFoot  -13.29 -0.564898 -36.9291
LeftToes  6.82088e-011 -2.45093e-011 5.71991e-013
129
root  23.6258 32.581 10.7714 -170.037 7.47986 177.123
RightUpLeg  -47.697 -4.36493 -17.5044
RightLeg  60.4447 -1.02176 -2.46022
RightFoot  -18.5377 1.46452 24.9368
RightToes  -5.8209e-011 0 -3.6325e-017
Spine  25.5221 -1.55842 6.52709
Spine1  15.6404 0.863548 -2.0619
HEad  -46.4567 14.6925 -17.2832
LeftShoulder1  2.08247 -4.55537 -19.3404
LeftArm  20.6045 50.809 -47.3732
LeftForeArm  -18.6265 -33.4882 -8.12511
LeftHand  -1.78061 -2.42964 26.178
RightShoulder  1.42144 2.03526 19.2588
RightArm  -25.2447 -49.2834 45.6604
RightForeArm  -9.16191 21.6751 5.77452
RightHand  -1.94335 5.67215 -20.4375
LeftUpLeg  -24.4962 -11.4968 30.3194
LeftLeg  39.9702 18.4018 16.1261
LeftFoot  -9.28874 0.700827 -36.2148
LeftToes  6.82088e-011 -2.45093e-011 5.71991e-013
130
root  24.5759 33.2311 10.6104 -170.913 5.25562 176.954
RightUpLeg  -44.3273 -5.03712 -15.6548
RightLeg  58.5696 -1.86562 -3.76068
RightFoot  -18.8709 1.43463 23.4524
RightToes  -5.8209e-011 0 -3.6325e-017
Spine  24.8247 -1.35623 6.56687
Spine1  14.2872 0.397759 -0.284573
HEad  -42.24 14.4419 -16.4999
LeftShoulder1  2.64673 -5.43067 -23.3228
LeftArm  7.96436 29.2989 -48.7854
LeftForeArm  -18.7795 -17.3436 -7.62471
LeftHand  -2.34654 -2.68742 33.0766
RightShoulder  1.60098 2.53628 20.1485
RightArm  -37.0618 -35.9448 44.3801
RightForeArm  -1.9941 14.6554 6.87794
RightHand  -2.55972 7.09196 -23.7889
LeftUpLeg  -21.9817 -17.8424 31.0031
LeftLeg  35.3393 25.1478 18.2675
LeftFoot  -3.80355 2.09749 -30.9428
LeftToes  6.82088e-011 -2.45093e-011 5.71991e-013
131
root  25.384 34.0391 10.4437 -173.086 2.32204 176.069
RightUpLeg  -38.8589 -5.68926 -15.0749
RightLeg  55.639 -3.16576 -5.39421
RightFoot  -18.7918 1.34881 22.4205
RightToes  -5.8209e-011 0 -3.6325e-017
Spine  23.5011 -1.54413 6.21718
Spine1  13.6364 -0.271468 0.47455
HEad  -34.9561 14.2206 -14.4306
LeftShoulder1  3.51144 -7.3337 -26.3017
LeftArm  -38.2941 4.66241 -47.31
LeftForeArm  19.8571 6.45088 -10.583
LeftHand  -2.96334 -3.53261 37.6141
RightShoulder  1.88909 3.37173 21.1906
RightArm  -38.6917 -17.7679 43.1884
RightForeArm  6.11462 9.71176 6.90445
RightHand  -3.07022 8.23624 -26.0632
LeftUpLeg  -19.0768 -21.1116 29.2
LeftLeg  30.8313 27.0306 16.6731
LeftFoot  -0.251822 2.63402 -26.5016
LeftToes  6.82088e-011 -2.45093e-011 5.71991e-013
132
root  25.9986 34.7909 10.3375 -176.531 -0.600479 174.806
RightUpLeg  -32.1645 -5.93213 -15.6143
RightLeg  52.621 -4.5419 -6.74528
RightFoot  -18.4456 1.24547 21.8499
RightToes  -5.8209e-011 0 -3.6325e-017
Spine  22.0122 -2.13865 4.8693
Spine1  13.4878 -1.41284 0.896881
HEad  -27.107 13.9294 -12.6022
LeftShoulder1  4.1996 -9.75587 -25.5989
LeftArm  -41.2881 -16.3735 -49.8651
LeftForeArm  19.958 6.97073 -3.00689
LeftHand  -3.233 -4.05584 38.6137
RightShoulder  2.18631 4.83709 19.8954
RightArm  -32.752 2.54586 44.9173
RightForeArm  10.8676 9.06069 8.11677
RightHand  -3.30873 8.47161 -27.5083
LeftUpLeg  -15.4877 -18.7084 24.7874
LeftLeg  28.5546 21.0477 12.2138
LeftFoot  -0.64816 2.65048 -27.8654
LeftToes  6.82088e-011 -2.45093e-011 5.71991e-013
133
root  26.4134 35.3845 10.1926 179.732 -2.71472 173.979
RightUpLeg  -25.5207 -5.92036 -16.2023
RightLeg  49.7651 -5.47265 -7.25524
RightFoot  -18.16 1.16779 21.4538
RightToes  -5.8209e-011 0 -3.6325e-017
Spine  20.5438 -2.62131 3.92232
Spine1  12.5125 -2.18194 1.24592
HEad  -20.6265 13.3073 -12.0317
LeftShoulder1  4.03897 -11.3305 -20.8087
LeftArm  -33.5342 -31.3158 -54.4319
LeftForeArm  12.8791 4.91026 -6.41452
LeftHand  -3.29903 -4.17835 38.8672
RightShoulder  2.17176 6.33825 15.3372
RightArm  -19.0854 20.755 48.9098
RightForeArm  6.37258 15.3274 8.24472
RightHand  -3.64903 8.80309 -29.517
LeftUpLeg  -11.5825 -13.1867 20.0499
LeftLeg  30.4413 13.1014 8.50669
LeftFoot  -2.82124 2.42264 -31.5267
LeftToes  6.82088e-011 -2.45093e-011 5.71991e-013
134
root  26.7072 35.8787 9.83481 176.927 -3.86722 173.993
RightUpLeg  -19.8904 -6.14443 -16.0251
RightLeg  46.833 -6.01021 -7.15112
RightFoot  -17.9696 1.11719 21.1906
RightToes  -5.8209e-011 0 -3.6325e-017
Spine  18.5437 -2.30467 4.67645
Spine1  10.0046 -1.62187 1.11507
HEad  -15.2773 12.2654 -11.7871
LeftShoulder1  2.98235 -10.8339 -13.772
LeftArm  -12.8814 -41.3258 -60.1931
LeftForeArm  -0.789504 -11.0921 -12.3302
LeftHand  -3.3051 -4.32599 38.378
RightShoulder  1.62968 6.52571 8.7592
RightArm  -5.06919 34.4152 51.1208
RightForeArm  -2.82418 28.4974 5.87572
RightHand  -3.90575 9.27733 -30.5236
LeftUpLeg  -7.77296 -8.00896 16.7229
LeftLeg  34.1846 8.95242 6.8633
LeftFoot  -4.71866 1.93103 -32.0177
LeftToes  6.82088e-011 -2.45093e-011 5.71991e-013
135
root  26.963 36.3308 9.20057 175.315 -5.14211 174.58
RightUpLeg  -15.0569 -6.63707 -15.2636
RightLeg  43.9021 -6.70328 -7.16253
RightFoot  -17.841 1.10281 21.3437
RightToes  -5.8209e-011 0 -3.6325e-017
Spine  16.2924 -1.00447 5.90611
Spine1  5.74216 -0.170819 1.26579
HEad  -9.53578 10.6189 -10.4145
LeftShoulder1  1.7835 -8.91949 -6.68556
LeftArm  9.2453 -49.9331 -63.2515
LeftForeArm  -17.6014 -37.1224 -8.57733
LeftHand  -3.07184 -4.29854 35.9511
RightShoulder  0.817014 4.76882 1.53325
RightArm  -12.3932 43.8896 48.2061
RightForeArm  2.52668 41.3268 9.69423
RightHand  -3.81959 9.12279 -30.184
LeftUpLeg  -4.40013 -4.44498 14.4852
LeftLeg  37.2402 6.90046 5.96454
LeftFoot  -6.61924 1.29267 -29.7203
LeftToes  6.82088e-011 -2.45093e-011 5.71991e-013
136
root  27.1834 36.6797 8.37569 174.308 -8.01617 175.443
RightUpLeg  -10.2253 -6.87116 -14.3042
RightLeg  41.3644 -7.87119 -7.64606
RightFoot  -18.0889 1.1962 22.1232
RightToes  -5.8209e-011 0 -3.6325e-017
Spine  15.446 0.383998 5.81222
Spine1  -1.66611 0.952076 2.9411
HEad  -2.52941 8.11985 -7.98791
LeftShoulder1  0.887639 -7.78658 0.559244
LeftArm  -7.76778 -57.1879 -56.3203
LeftForeArm  -7.35587 -50.9486 -14.3067
LeftHand  -2.86697 -3.96836 34.8338
RightShoulder  0.203821 2.3123 -5.60251
RightArm  -23.2007 48.9149 42.1627
RightForeArm  5.67482 52.4493 14.2758
RightHand  -3.7727 8.80681 -30.4585
LeftUpLeg  -1.81271 -3.34357 12.6125
LeftLeg  39.5264 4.07371 3.96789
LeftFoot  -8.61059 0.717665 -27.5407
LeftToes  6.82088e-011 -2.45093e-011 5.71991e-013
